<svg width="50" height="30" viewBox="0 0 50 30" fill="none" xmlns="http://www.w3.org/2000/svg">
<g id="Group 945">
<rect id="Rectangle 4030" y="0.96582" width="50" height="28.8899" rx="14.445" fill="#004C15"/>
<path id="Vector" d="M30.4444 18.5935C29.7126 18.5935 29.0578 18.8417 28.557 19.2306L21.6911 15.7967C21.7393 15.6064 21.7778 15.4161 21.7778 15.2175C21.7778 15.019 21.7393 14.8286 21.6911 14.6383L28.48 11.2375C29 11.6513 29.6837 11.9078 30.4444 11.9078C32.043 11.9078 33.3333 10.799 33.3333 9.42544C33.3333 8.05189 32.043 6.94312 30.4444 6.94312C28.8459 6.94312 27.5556 8.05189 27.5556 9.42544C27.5556 9.62403 27.5941 9.81434 27.6422 10.0047L20.8533 13.4054C20.3333 12.9917 19.6496 12.7352 18.8889 12.7352C17.2904 12.7352 16 13.844 16 15.2175C16 16.5911 17.2904 17.6999 18.8889 17.6999C19.6496 17.6999 20.3333 17.4434 20.8533 17.0296L27.7096 20.4718C27.6615 20.6456 27.6326 20.8276 27.6326 21.0096C27.6326 22.3418 28.8941 23.4258 30.4444 23.4258C31.9948 23.4258 33.2563 22.3418 33.2563 21.0096C33.2563 19.6775 31.9948 18.5935 30.4444 18.5935Z" fill="white"/>
</g>
</svg>
